<svg width="142" height="189" viewBox="0 0 142 189" fill="#111111" xmlns="http://www.w3.org/2000/svg">
<path d="M5.12964 118.028C8.48722 148.322 50.3637 176.712 70.8823 187.121C117.329 170.063 135.935 131.854 139.433 114.882V21.555C81.6079 -13.5855 24.7155 6.91312 3.49749 21.555C2.64255 41.0904 1.77206 87.7346 5.12964 118.028Z" fill="#111111"></path>
<path fill-rule="evenodd" clip-rule="evenodd" d="M63.6415 0.0521369C44.9857 1.06347 29.7204 4.5167 15.8417 10.8653C10.4659 13.3244 4.79994 16.7618 2.04603 19.2349C-0.247621 21.2949 -0.0424334 16.5367 0.0499 65.5087C0.129876 107.893 0.139434 108.675 0.622086 111.998C2.98219 128.241 8.28693 140.219 18.6299 152.661C21.1066 155.64 28.7453 163.209 32.0418 165.951C40.8366 173.266 53.7406 181.395 66.308 187.539C69.2235 188.964 69.3828 189.012 71.0879 188.998L72.8516 188.984L77.8448 186.481C90.3942 180.191 100.102 174.089 109.342 166.682C113.072 163.693 121.143 155.611 124.16 151.845C134.083 139.459 138.987 128.188 141.447 112.114C141.802 109.795 141.847 105.372 141.92 65.7408L142 21.931L141.328 20.8717C139.821 18.4971 131.733 13.3955 124.265 10.1084C112.158 4.78025 99.4187 1.77257 82.9943 0.36486C80.0872 0.115521 66.5165 -0.103525 63.6415 0.0521369ZM81.0124 5.38985C91.3563 6.16863 98.9861 7.40949 107.61 9.71553C118.26 12.5636 128.932 17.3399 135.212 22.069L137.089 23.4821L137.087 63.0211C137.085 86.7069 136.991 104.1 136.851 106.401C135.887 122.24 130.787 135.437 120.774 148C117.475 152.139 109.875 159.667 105.355 163.274C99.2799 168.121 92.9399 172.414 85.5591 176.677C81.5274 179.006 71.6438 184.003 71.0697 184.003C70.2306 184.003 60.6587 179.003 54.1983 175.189C50.5122 173.013 43.9274 168.668 40.7997 166.347C31.7648 159.643 22.424 150.154 17.1955 142.368C10.665 132.643 6.51394 121.107 5.35698 109.468C5.20239 107.913 5.11705 92.1453 5.11705 65.1335V23.2124L6.97747 21.8339C16.4078 14.8456 31.8618 9.19285 48.3692 6.69294C58.5634 5.14913 71.1441 4.64673 81.0124 5.38985ZM110.21 27.6418C110.144 27.8341 109.907 28.713 109.682 29.5953C109.106 31.8577 108.354 32.6447 106.152 33.2922L104.422 33.8007L105.78 34.1836C108.597 34.9775 109.111 35.5244 109.816 38.4776C110.222 40.1805 110.22 40.1815 110.751 38.1294C111.394 35.6505 112.277 34.7825 114.805 34.1463C116.091 33.8226 115.988 33.652 114.196 33.1417C111.92 32.4939 111.253 31.6792 110.648 28.8069C110.472 27.9739 110.275 27.4496 110.21 27.6418ZM31.4029 31.2537C31.3311 31.5101 31.1437 32.2965 30.9867 33.0014C30.2161 36.4586 29.0594 37.5615 25.0527 38.6584L23.8869 38.9776L25.9853 39.6234C27.1395 39.9783 28.4375 40.5361 28.8698 40.8631C29.8107 41.574 30.5983 43.2138 31.1299 45.5676L31.5207 47.2981L32.0539 45.1904C32.347 44.0311 32.7488 42.7699 32.9467 42.3875C33.7467 40.8412 35.238 40.016 38.787 39.1557C39.3865 39.0105 39.2245 38.9208 37.3724 38.3722C36.2222 38.0315 34.9125 37.5254 34.4623 37.2472C33.4075 36.5956 32.5149 34.9416 31.9674 32.6239C31.6841 31.4243 31.4883 30.9492 31.4029 31.2537ZM67.2211 40.4641C50.5605 42.2181 36.7979 54.8577 33.5571 71.3812C32.9847 74.3001 32.7021 80.3226 33.0279 82.6648L33.2424 84.2081L29.9813 86.6263C22.6247 92.0809 17.8418 97.7568 16.6354 102.463C15.5673 106.63 18.0647 110.17 23.106 111.634C32.254 114.292 54.8029 108.983 76.6988 99.0161C93.6835 91.2847 112.022 79.3307 120.297 70.5968C125.753 64.8369 127.7 60.2518 126.46 56.079C125.957 54.384 124.186 52.6085 122.295 51.9013C118.392 50.4419 113.696 50.7387 102.23 53.1692L100.365 53.5646L98.0255 51.2642C89.9088 43.2835 78.4848 39.2782 67.2211 40.4641ZM77.9812 44.657C81.3612 45.3677 84.1316 46.3539 87.1989 47.9382C90.6696 49.7311 93.2659 51.6909 96.1912 54.7263C98.7674 57.3996 100.572 59.9472 102.213 63.2292C103.256 65.3141 104.912 69.8409 104.912 70.6066C104.912 71.1624 105.051 71.0995 106.668 69.8141L108.14 68.6431L107.724 67.1925C107.16 65.2276 106.188 62.8051 105.2 60.8999C104.75 60.0311 104.422 59.285 104.471 59.2416C104.521 59.1985 106.083 58.8623 107.943 58.4946C110.745 57.9407 111.923 57.8255 114.821 57.8225C117.736 57.8195 118.445 57.8878 119.077 58.2326C120.818 59.1836 119.712 61.5102 115.412 65.9421C109.485 72.05 100.259 78.633 87.541 85.8279C70.8275 95.2837 50.8312 102.748 35.7783 105.151C32.6651 105.648 26.904 105.727 25.4712 105.292C24.3163 104.941 23.0708 103.964 23.0708 103.408C23.0708 101.674 29.099 95.0471 34.2891 91.0759C34.6174 90.8247 34.7323 90.9734 35.194 92.2464C36.0744 94.6741 39.0736 100.339 40.1858 101.675C40.2343 101.733 43.912 100.799 44.0076 100.704C44.0454 100.667 43.4835 99.8107 42.7588 98.8017C40.3325 95.4235 38.2857 90.6129 37.2556 85.8664C36.5538 82.6336 36.4941 75.5048 37.1418 72.2748C38.545 65.2784 41.5065 59.6229 46.422 54.5513C50.1019 50.7553 53.7819 48.268 58.465 46.4117C60.8655 45.4602 64.3483 44.5185 66.6727 44.1925C69.1596 43.8437 75.3152 44.0965 77.9812 44.657ZM74.0211 49.9227C73.2013 51.1736 65.4588 59.7995 65.1562 59.7995C64.7472 59.7995 58.234 58.5479 54.7318 57.7964C51.5356 57.1104 51.5678 57.1015 49.8822 59.1258C47.4972 61.99 44.9864 66.1658 43.6989 69.4093L43.0754 70.9797L44.7004 73.2543C45.5941 74.5054 47.3361 76.8272 48.5714 78.4139C49.8067 80.0008 50.8174 81.3995 50.8174 81.5218C50.8174 81.6444 49.8603 84.1734 48.6905 87.1422C45.5239 95.1786 45.7391 94.095 47.0008 95.6472C48.7274 97.7712 49.8715 98.948 50.2098 98.948C51.2059 98.948 63.1363 94.6333 67.0616 92.8532L68.2666 92.3068L65.356 88.6948C61.2945 83.6552 58.2787 79.6392 58.2787 79.2705C58.2787 78.5617 63.5387 71.1095 66.7177 67.3146C67.6035 66.2572 68.511 65.3922 68.7343 65.3922C69.5201 65.3922 81.956 69.7773 82.873 70.3778C83.5874 70.8457 83.6544 71.407 83.8393 78.4999C83.9253 81.8003 84.0372 84.5004 84.088 84.5004C84.2557 84.5004 89.4968 81.4862 92.2756 79.7918C95.5206 77.8132 99.6938 75.0448 99.8761 74.7498C99.9477 74.634 99.8901 73.6418 99.7486 72.5444L99.4907 70.5493L98.1791 70.0273C96.679 69.4303 88.7656 65.8782 88.6268 65.7394C88.4608 65.5734 87.7114 59.981 87.3997 56.5796L87.0938 53.2431L85.6465 52.4342C83.6574 51.3225 80.8944 50.3489 78.1316 49.7864C75.0195 49.1525 74.5152 49.1693 74.0211 49.9227ZM19.2592 65.3381C19.0589 66.5904 18.3371 67.4253 17.1708 67.7539L16.1924 68.0298L17.0425 68.243C18.1981 68.5329 18.8836 69.3336 19.2079 70.7725L19.4796 71.9787L19.8785 70.5448C20.2003 69.3881 20.4234 69.022 21.0329 68.6506C21.4484 68.3973 22.0507 68.1843 22.3713 68.1773C22.8008 68.1675 22.638 68.0426 21.7529 67.7026C20.8345 67.3496 20.464 67.0562 20.1791 66.4562C19.9741 66.0244 19.8048 65.5299 19.803 65.357C19.8009 65.1841 19.7109 64.903 19.6024 64.7325C19.4688 64.5216 19.3588 64.7154 19.2592 65.3381ZM107.473 84.3302L105.488 85.7515L104.614 88.4511C101.057 99.4327 92.8028 107.894 82.2134 111.414C78.0069 112.813 76.4146 113.048 71.2194 113.034C65.2336 113.017 62.5795 112.483 56.7394 110.117C56.1068 109.861 55.7195 109.907 53.6499 110.485C52.3486 110.848 51.2838 111.22 51.2838 111.312C51.2838 111.404 52.0971 111.898 53.0908 112.41C65.8932 119.006 80.7603 118.252 92.554 110.409C100.565 105.082 106.357 96.844 108.724 87.4111C109.298 85.1223 109.71 82.8501 109.543 82.889C109.497 82.8999 108.565 83.5484 107.473 84.3302ZM84.3932 98.588C81.7643 99.8999 77.8665 101.743 75.7312 102.683L71.849 104.392L73.3946 106.098C74.2445 107.036 75.0997 107.801 75.2949 107.8C75.9004 107.794 78.5928 107.121 80.546 106.488C82.3929 105.889 87.2549 103.524 88.3333 102.7C88.8395 102.313 88.9122 102.02 89.0992 99.6201C89.213 98.1611 89.2762 96.7951 89.2396 96.5849C89.1867 96.2799 88.2057 96.6851 84.3932 98.588ZM111.503 111.112C110.649 115.57 109.869 116.582 106.433 117.688L104.135 118.427L106.279 119.07C109.604 120.067 110.431 121.068 111.355 125.212L111.782 127.125L112.429 124.63C113.125 121.948 113.891 120.566 115.058 119.887C115.441 119.665 116.646 119.223 117.736 118.906C118.826 118.59 119.56 118.277 119.368 118.212C119.176 118.146 118.138 117.809 117.062 117.462C113.806 116.412 113.259 115.689 112.086 110.879L111.785 109.643L111.503 111.112ZM63.3969 126.91C58.0572 127.759 55.0144 131.016 55.0144 135.883C55.0144 139.016 56.142 141.22 58.5567 142.809C60.0771 143.809 61.7121 144.426 65.5658 145.452C70.1354 146.669 71.336 147.477 71.336 149.337C71.336 152.929 63.7614 153.323 61.5542 149.845C61.1733 149.244 60.8254 148.645 60.7815 148.513C60.7074 148.291 58.4988 148.607 55.217 149.31L54.1373 149.542L54.348 150.478C55.1744 154.154 58.3531 156.742 63.0309 157.547C72.0194 159.095 78.6091 155.352 78.6091 148.699C78.6091 144.043 75.8508 141.488 68.538 139.369C64.7358 138.267 63.555 137.743 62.7072 136.777C61.9266 135.889 61.8345 135.149 62.3745 134.105C62.9138 133.063 64.3135 132.515 66.4521 132.509C69.2018 132.501 70.3518 133.194 71.7935 135.727C71.9355 135.977 72.5627 135.881 74.9757 135.242C78.4109 134.332 78.3424 134.429 77.2213 132.052C76.0648 129.601 73.8959 128.009 70.7426 127.298C68.6728 126.831 65.0867 126.642 63.3969 126.91ZM41.1052 130.21C41.1891 131.768 41.2577 138.427 41.2577 145.007V156.972H48.6024L48.479 127.377H40.9529L41.1052 130.21ZM84.1608 138.504C84.1612 144.624 84.2303 151.283 84.314 153.302L84.4662 156.972H102.347V150.68H91.3882V127.377H84.1601L84.1608 138.504Z" fill="#E3E0D5"></path>
</svg>